<?xml version="1.0" encoding="utf-8"?>
<!-- Generator: Adobe Illustrator 23.0.1, SVG Export Plug-In . SVG Version: 6.00 Build 0)  -->
<svg version="1.1" id="Layer_1" xmlns="http://www.w3.org/2000/svg" xmlns:xlink="http://www.w3.org/1999/xlink" x="0px" y="0px"
	 viewBox="0 0 1920 1080" style="enable-background:new 0 0 1920 1080;" xml:space="preserve">
<style type="text/css">
	.st0{fill:#003300;}
	.st1{display:none;fill:#FFA617;}
	.st2{fill:#188754;}
	.st3{display:none;fill:none;stroke:#008B7D;stroke-miterlimit:10;}
	.st4{fill:#E78200;}
	.st5{fill:#2D2D2D;}
	.st6{opacity:0.17;fill:#FFFFFF;}
	.st7{opacity:0.18;fill:#FFFFFF;}
</style>
<image style="display:none;overflow:visible;" width="668" height="1295" xlink:href="../WhatsApp Image 2022-01-17 at 9.07.11 PM.jpeg"  transform="matrix(1.4961 0 0 1.4961 178.4004 -392.8873)">
</image>
<path class="st0" d="M1149.3,703.8c-3,22-30,97-30,97c-1.7,4.1-4.7,2.8-5.7,2.2c-0.2-0.1-0.4-0.3-0.5-0.5
	c-12.3-17.5-59.8,8.3-59.8,8.3c-77,45-128,58-128,58c-122.8,28-152.1-44.9-153.9-49.7c-0.1-0.2-0.1-0.4-0.1-0.5l-0.9-46.2
	c0-1.5-2-2.2-2.9-1l-43.2,55.4c-36.6,51.3-73.2,38.8-79.2,36.4c-0.5-0.2-0.9-0.7-1-1.2l-9.3-59.8c-0.2-1.3-1.9-1.9-2.8-0.9
	c-44.9,48.9-126.5,80.6-128.7,81.5c0,0-0.1,0-0.1,0c-55.2,17.7-98,8.1-125.9-4.7c-10.5-4.8-18.9-10-25-14.4
	c-0.1-0.1-0.2-0.1-0.2-0.2c-11.9-9-21.7-20.9-13-32.8c13.9,4.1,23.2,5,23.2,5c152.4,20.1,254.2-85.6,262.5-94.4
	c0.3-0.4,0.5-0.9,0.4-1.4c-2.1-12.6-29.4-174-41.9-218.2c-11.3-39.9-31.5-182.6-36.8-220c-1.7-21-2.3-51.7-2.3-51.7h0
	c0-108.2,22.9-165.5,41.1-194.4c17.7-27.9,13.7-1.4,13.1,2.5c0,0.3-0.2,0.6-0.4,0.8c-24.3,26.7-24,129.6-22.6,175.9
	c-2.1,11.7,6.7,60.1,6.7,60.1l0.1,0c10.6,68.6,65.9,374.2,72.6,411.1c0.3,1.4,2,1.8,2.9,0.7c28.9-37.7,88.5-88.7,116.8-112
	c29-24,28,4,28,4l-3,42c-1,23-7,13-7,13c-10-14-29,7-53,29c-22.7,20.8-72.2,79.1-77.5,85.4c-0.3,0.4-0.4,0.8-0.4,1.3l4.7,28.9
	c0.1,0.8,0.8,1.4,1.6,1.4c23.4-1,43.6-26,43.6-26s39-44,50-59c9-12.3,25.5-15.2,31.1-15.8c1-0.1,1.9,0.7,1.8,1.7
	c-2.6,43.1-11,56.7-13.9,60.1c-0.5,0.6-0.5,1.5,0,2.1l15,16.9c53,56,144,16,144,16s107-41,128-56c16.9-12.1,42.3-11.2,51.5-10.4
	c1.4,0.1,2.3-1.4,1.5-2.6c-18.5-25.3-39.7-14.7-86-4.1c-48,11-94,39-132,50c-33.5,9.7-49.2-0.1-52.4-2.5c-0.4-0.3-0.6-0.8-0.6-1.3
	v-54.1c0-0.7,0.4-1.3,1-1.5l5.5-2.1c0.8-0.3,1.2-1.1,1-1.9c-6-28.1,95.8-154.9,116.4-172.6c20-17.2,31-23.4,31.9-24
	c0,0,0.1,0,0.1-0.1c1.6-1.2,33.8-23.6,66.9-11c32.8,12.5,20,55.7,19.1,58.8c0,0.1-0.1,0.2-0.2,0.3l-29.2,49.6
	c-1,1.7-3.5,0.5-2.9-1.3c1.1-3.6,2.7-7.2,3.1-8.2c0.1-0.2,0.1-0.4,0.2-0.5c1.9-21.8-5-29.7-5-29.7c-33.5-51.2-103.8,28.5-106,30.9
	c0,0-0.1,0.1-0.1,0.1c-19.7,17.8-69,96.9-70.9,99.9c0,0-0.1,0.1-0.1,0.2c-6.9,14.9,2,11.9,2,11.9c11.4-1.9,23.7-6.5,24.9-7
	c0.1,0,0.1,0,0.2-0.1c34.7-18.8,156.9-50.2,159.9-50.9c0,0,0.1,0,0.1,0C1161.2,638.8,1149.3,703.8,1149.3,703.8z"/>
<path class="st1" d="M1061.9,610.5l29.2-49.6c0.1-0.1,0.1-0.2,0.2-0.3c1-3.1,13.7-46.3-19.1-58.8c-33.1-12.7-65.3,9.8-66.9,11
	c0,0-0.1,0.1-0.1,0.1c-1,0.5-11.9,6.8-31.9,24c-20.6,17.7-122.4,144.5-116.4,172.6c0.2,0.8-0.2,1.6-1,1.9l-5.5,2.1
	c-0.6,0.2-1.1,0.8-1.1,1.5V769c0,0.5,0.2,1,0.6,1.3c3.2,2.4,18.8,12.2,52.4,2.5c38-11,84-39,132-50c46.3-10.6,67.5-21.2,86,4.1
	c0.8,1.1-0.1,2.7-1.5,2.6c-9.2-0.8-34.6-1.7-51.5,10.4c-21,15-128,56-128,56s-91,40-144-16l-15-16.9c-0.5-0.6-0.5-1.5,0-2.1
	c2.9-3.4,11.3-17,13.9-60.1c0.1-1-0.8-1.8-1.8-1.7c-5.6,0.6-22,3.5-31.1,15.8c-11,15-50,59-50,59s-20.2,25-43.6,26
	c-0.8,0-1.5-0.6-1.6-1.4l-4.7-28.9c-0.1-0.5,0.1-0.9,0.4-1.3c5.4-6.4,54.8-64.6,77.5-85.4c24-22,43-43,53-29c0,0,6,10,7-13l3-42
	c0,0,1-28-28-4c-28.3,23.4-87.8,74.3-116.8,112.1c-0.9,1.1-2.6,0.7-2.9-0.7c-7.4-40.8-74.3-411.1-74.3-424.4v-1.9
	c0-0.7,0.4-1.3,1-1.5c13.5-5.1,154.4-59,164-66.6c10-8,95.7-39.9,146.8-89.8c0.2-0.2,0.3-0.3,0.4-0.5c0.9-2,5.9-14.1,5.9-28.7
	c0,0-1-2-3,0c-2,2-73,64-314.9,163c0,0-0.1,0-0.1,0.1l-1.7,0.9c-1,0.5-2.3-0.2-2.3-1.4c-1.1-20.6-7.5-164,21.8-196.2
	c0.2-0.2,0.3-0.5,0.4-0.8c0.6-3.9,4.6-30.4-13.1-2.5c-18.9,29.9-42.8,90.6-41,206.8c0,0.7-0.4,1.3-1.1,1.6
	c-8.2,2.9-60.1,20.6-96.9,20.6c-39.9,0-57,42.9-15.2,50c0.1,0,0.2,0,0.3,0l38.7-1c0.1,0,0.2,0,0.3,0c1.2-0.2,10-2-1.1-3
	c0,0-0.1,0-0.1,0h-26.9c0,0-13,0-18-5s-8-14,0-21s12-7,23-7c10.8,0,64.3-2.9,96.5-4.9c0.8-0.1,1.6,0.6,1.7,1.4
	c2.4,17.5,25.5,183.9,37.8,227.5c12.5,44.2,39.7,205.6,41.9,218.2c0.1,0.5-0.1,1-0.4,1.4c-8.2,8.8-110.1,114.5-262.5,94.4
	c0,0-141.9-14-149-179.9c0-0.1,0-0.1,0-0.2c-0.2-1.1-2.2-11.1-6.9-0.2c-0.1,0.2-0.1,0.4-0.1,0.6c-0.1,7.5-0.2,143,133.7,197.6
	c0.2,0.1,0.4,0.2,0.5,0.3c4,4,63.3,60.6,162.7,28.8c0,0,0.1,0,0.1,0c2.2-0.9,83.8-32.6,128.7-81.5c0.9-1,2.6-0.5,2.8,0.9l9.3,59.8
	c0.1,0.6,0.5,1,1,1.2c5.9,2.5,42.6,14.9,79.2-36.4l43.2-55.4c0.9-1.2,2.9-0.6,2.9,1l0.9,46.2c0,0.2,0,0.4,0.1,0.5
	c1.8,4.9,31.1,77.8,153.9,49.7c0,0,51-13,128-58c0,0,47.5-25.8,59.8-8.3c0.1,0.2,0.3,0.3,0.5,0.5c1,0.6,4,1.9,5.7-2.2
	c0,0,27-75,30-97c0,0,12-65-81.9-48c0,0-0.1,0-0.1,0c-3,0.8-125.2,32.2-159.9,50.9c-0.1,0-0.1,0.1-0.2,0.1c-1.2,0.4-13.5,5.1-24.9,7
	c0,0-9,3-2-11.9c0-0.1,0.1-0.1,0.1-0.2c1.8-3,51.2-82.1,70.9-99.9c0,0,0.1-0.1,0.1-0.1c2.2-2.5,72.5-82.1,105.9-30.9
	c0,0,6.9,7.9,5,29.7c0,0.2-0.1,0.4-0.1,0.5c-0.4,1-2,4.6-3.1,8.2C1058.4,611,1061,612.2,1061.9,610.5z"/>
<path d="M-114,455"/>
<path class="st2" d="M463,334"/>
<path class="st3" d="M470,283c-33,0-57,9-60,32s34,20,34,20l26-1c0,0,4.5-1.5,0.5-3.5h-34c0,0-9-1-14-7s-4-11-4-11s0-7,9-10
	s11-4,42-4L470,283z"/>
<path class="st0" d="M899.5,96.5c0,9-3,26-21,37c0,0-83,73-297,146c0,0-42,15-112,19l0-0.1c-0.3,0.1-0.6,0.1-0.9,0.1h-31.3
	c-0.2,0-0.5,0-0.7,0c-0.2,0-0.5,0-0.7,0c-3.1,0.1-5.9,0.8-8.1,2c0,0,0,0,0,0c-0.8,0.6-1.6,1.2-2.4,1.8l-0.1,0
	c-0.1,0.1-0.2,0.2-0.3,0.3c0,0,0,0,0,0c-4.8,4.1-7.3,8.9-6.6,13.6c0.9,5.7,6.3,10,14.2,12.3c0,0,0,0,0,0c3.3,1.4,10.9,2.5,19.8,2.5
	c5.8,0,11.1-0.4,15-1.1c0.3,0.4,0.2,1.1-0.4,1.3c-3.8,1.3-7.8,2.3-12.1,3c-0.9,0.1-1.9,0.3-2.8,0.4c-5.4,0.6-10.6,0.6-15.4,0
	c-14.7-1.8-25.8-8.8-27.3-18.7c-1.5-9.7,6.6-19.5,19.6-25.7c1.5-0.7,3.1-1.4,4.8-2c1-0.4,1.9-0.7,2.9-1c1.4-0.5,2.9-0.9,4.4-1.2
	l7.7-1.1l9.4-0.9l12.9-1.3l0.2,0c0.1,0,0.3,0,0.5,0l0.6-0.1c12.2-1.4,80.2-10.1,149.1-41.8c0,0,133-58,167-79c0,0,89-46,106.5-67.5
	C895,94,899.5,87.5,899.5,96.5z"/>
<path class="st2" d="M425.5,302.3c-0.2,0.1-0.3,0.3-0.5,0.4c0.1-0.1,0.2-0.2,0.3-0.3L425.5,302.3z"/>
<path class="st2" d="M437.4,298.5H436c0.2,0,0.4,0,0.7,0C436.9,298.5,437.2,298.5,437.4,298.5z"/>
<path class="st0" d="M663.8,497.2c11,4.1,32.6,12.5,42.5,18c3,1.7,4.5,5.1,3.6,8.4c-2.6,10.3-9,34.6-15.6,51.5c0,0-2.8,9.4-6.9,0
	c-3-7-28-13-40.9-15.6c-4.2-0.9-6.8-5-5.8-9.1c2.9-12.1,8.7-35.7,13.4-48.7C655.5,497.7,659.9,495.7,663.8,497.2z"/>
<path class="st0" d="M736.9,453c10.1,4.9,29.8,14.8,38.7,21.1c2.7,1.9,3.9,5.7,2.9,9.1c-3,10.9-10.2,36.4-17.3,54
	c0,0-3.1,9.9-6.4-0.3c-2.4-7.6-25.4-15.1-37.3-18.5c-3.8-1.1-6.1-5.6-4.9-10c3.3-12.8,10-37.6,15-51.1
	C729.1,453.1,733.3,451.2,736.9,453z"/>
<path class="st0" d="M596.7,869.4c13.4,5.9,39.7,17.6,51.5,24.8c3.6,2.2,5,6,3.6,9.4c-4.4,10.6-15.2,35.4-25.5,52.4
	c0,0-4.6,9.6-8.7-0.9c-3-7.8-33.8-17.5-49.7-22.1c-5.2-1.5-8-6.2-6.3-10.5c5-12.5,15-36.6,22.3-49.7
	C586.2,868.9,591.9,867.3,596.7,869.4z"/>
<path class="st4" d="M123.7,435.5"/>
<path class="st0" d="M453.8,467.5c0,0,15,40.7,16.5,46.1c1.5,5.4,4.8,38.5-0.5,56.9c-5.3,18.4-9.9,45.4-33.4,61.4v-21.4
	c0,0,18.7-24.2,2.7-45.6c-16-21.4-32-24.2-32-24.2V559c0,0-10.6,22.8-29.6-1c-4.5-5.4-0.3-32.7-0.3-32.7s11.2-36.1,47-10.5
	c35.7,25.5,27.2,77.6,27.2,77.6s19.8-35.7,11.9-66.4c-7.8-30.6-26.4-40.2-20.9-73.5c0,0,4.3-31.5,16.5-34.5c0,0,8.8-5.6,14.5-0.2
	c5.6,5.4,3.8,11.9,2.5,19.6c-1.2,7.7-6.8,19.1-6.8,19.1s-3.4-12.8-13.1-9.5C446.3,450.1,453.8,467.5,453.8,467.5z"/>
<path class="st0" d="M678.3,310.9c0,0-5.4,8.5,2,3.9l5.3-6c0,0,3.6-4.3,4.6,2.9c1,7.1,9.4,51.6,21.4,48.9
	c12.1-2.7,14.6-17.5,14.6-17.5s14.5,17.4,21.3-1c6.8-18.4-6.5-64.9-14.1-70.5c-7.7-5.6-7.9,3.6-6.6,7.2s7.1,10.1,8,15.6
	c0.8,5.5,6.8,24.4,6.4,36.6c0,0-0.3,6.7-1.4,8.7c-1.1,2-4,2.5-7.4-2.8c-3.4-5.3-8.3-16.4-11.1-33.2c0,0-3.3-12.5-5.7-15.8
	c-2.5-3.3-8-3.6-7.4,4.8s10,32.1,10,32.1s3.5,15.1-0.9,21.4c-4.3,6.2-7,4.7-9.6,1.2S696.5,309,696.5,309s-3.8-25.5-10.7-12.1
	C678.9,310.2,678.3,310.9,678.3,310.9z"/>
<path class="st0" d="M940.4,420.4c0,0-25.4,10.1-23.2-6.1c0,0,0.4-9.3,11.2-18.8s7.5-12,7.5-12s-23.6,10.6-28.2,36.3
	s14.3,24.9,14.3,24.9s15.2-0.9,22.6-12.8c2.7-4.4,2.2-12,2.2-12s0.3-3-0.6-3.3S941.6,420.3,940.4,420.4z"/>
<path class="st0" d="M1044.7,351.2l-5-4.4c7-27.4,3.3-34.1,0.1-40.2c-3.2-6.1-8.3-9.8-12-7.9c-3.7,1.9-9.6,2.9-16.1,22.9
	c-6.5,20,6.7,34.5,8.9,36.3c0.4,0.3,1.6,1.2,3.3,2.3L987,411.4c0,0-9.9,15,2.9,3c11.7-11,37.3-43.8,41.6-49.3
	c7.6,4.9,16.4,10.5,16.4,10.5s0.4-7.1,0.5-14.6C1048.7,353.6,1044.7,351.2,1044.7,351.2z M1032.3,340.8l-8.4-7.4
	c0,0-7.4-7.5-4.5-13.6c2.9-6.1,8.8,1.6,8.8,1.6S1035.6,329.7,1032.3,340.8z"/>
<path class="st2" d="M436.7,298.5c0.2,0,0.5,0,0.7,0H436C436.3,298.5,436.5,298.5,436.7,298.5z"/>
<path class="st2" d="M438,298.5L438,298.5c-0.2,0-0.4,0-0.6,0H438z"/>
<path class="st2" d="M425.5,302.3c-0.2,0.1-0.3,0.3-0.5,0.4c0.1-0.1,0.2-0.2,0.3-0.3L425.5,302.3z"/>
<path class="st2" d="M437.4,298.5H436c0.2,0,0.4,0,0.7,0C436.9,298.5,437.2,298.5,437.4,298.5z"/>
<path class="st5" d="M377.3,878.1c0,0-13.5-5.8-25.1-14.5C358.4,868.1,366.8,873.3,377.3,878.1L377.3,878.1z"/>
<path class="st5" d="M361.2,855"/>
<g>
	<path class="st0" d="M353.7,854.5l-1.2-0.3l-1-0.3l-2-0.6c-1.3-0.4-2.6-0.8-3.9-1.3c-2.6-0.9-5.1-1.8-7.6-2.8c-5-2-10-4.1-14.8-6.5
		c-9.7-4.7-19-10-28-15.9c-17.9-11.9-34-26.5-47.5-43.2c-6.8-8.4-12.8-17.3-18.1-26.6l-3.9-7.1c-0.7-1.2-1.2-2.4-1.8-3.6l-1.7-3.6
		l-1.7-3.6c-0.6-1.2-1-2.5-1.6-3.7l-3-7.4c-7.4-20.1-11.8-41.2-13.6-62.3c-1-10.7-0.8-21.6,0.5-32.3c1.3-10.7,3.7-21.2,6.9-31.4
		c3.3-10.2,7.5-20,12.4-29.5c4.9-9.4,10.6-18.4,16.7-27c12.3-17.2,26.8-32.7,42.4-46.7c15.6-14,32.5-26.5,50.1-37.7
		c35.3-22.4,73.5-39.8,113.3-52c19.9-6.1,40.2-11,60.7-14.2c20.5-3.3,41.3-5,62.2-4.8l3.9,0l3.9,0.1l3.9,0.1l3.9,0.2
		c5.2,0.3,10.4,0.5,15.5,1.1c5.2,0.5,10.3,0.9,15.5,1.6l7.7,1l7.7,1.2c10.3,1.5,20.4,3.7,30.5,6l7.5,2l3.8,1l3.7,1.1
		c2.5,0.7,5,1.4,7.5,2.2l7.4,2.5c9.8,3.4,19.4,7.3,28.8,11.7c9.4,4.5,18.5,9.5,27.2,15.1c8.7,5.6,17,11.9,24.7,18.8
		c3.8,3.5,7.5,7.1,11,11c3.4,3.9,6.7,7.9,9.5,12.3c-2.8-4.3-6.2-8.3-9.7-12.1c-3.5-3.8-7.3-7.3-11.1-10.8
		c-7.8-6.8-16.1-12.9-24.9-18.3c-8.8-5.4-17.9-10.3-27.3-14.5c-9.4-4.2-19-7.9-28.8-11.1l-7.4-2.3c-2.5-0.7-5-1.4-7.4-2.1l-3.7-1
		l-3.8-0.9l-7.5-1.8c-10.1-2.1-20.2-4.1-30.4-5.4l-7.6-1l-7.7-0.8c-5.1-0.6-10.2-0.9-15.4-1.3c-5.1-0.5-10.3-0.6-15.4-0.8l-3.9-0.2
		l-3.8-0.1l-3.8-0.1l-3.8,0c-20.5,0.2-41,2.3-61.2,5.9c-20.2,3.6-40.1,8.8-59.6,15.1c-39,12.8-76.3,30.6-110.5,53.1
		c-17,11.3-33.2,23.8-48.2,37.7c-14.9,13.9-28.5,29.1-40,45.7c-5.7,8.3-10.9,17-15.4,25.9c-4.5,9-8.2,18.3-11.1,27.8
		c-2.9,9.5-4.9,19.3-5.9,29.1c-0.2,2.5-0.4,4.9-0.6,7.4c0,2.5-0.2,4.9-0.2,7.4c0.1,5,0.3,9.8,0.8,14.8c2,20,6.5,39.7,13.8,58.2
		l2.9,6.9c0.5,1.1,0.9,2.3,1.5,3.4l1.7,3.3l1.7,3.3c0.6,1.1,1.1,2.2,1.7,3.3l3.7,6.5c5.1,8.5,10.8,16.7,17.2,24.2
		c12.8,15.1,27.9,28.4,44.6,39.1c8.4,5.4,17.1,10.1,26.1,14.3c4.5,2.1,9.1,4,13.7,5.7c2.3,0.9,4.6,1.7,6.9,2.4
		c1.2,0.4,2.3,0.7,3.5,1.1l1.7,0.5l0.8,0.2l0.7,0.2L353.7,854.5z"/>
</g>
<path class="st6" d="M1021.9,514.5c19.2-4.8,74.3-14,55.9,44.6c-0.3,1-1.7,0.7-1.7-0.3c0.2-13.7-5.3-41.8-53.9-42.6
	C1021.1,516.2,1020.9,514.8,1021.9,514.5z"/>
<path class="st7" d="M1046.1,673.3c23.8-6.8,98.7-23.4,87.5,38.3c-0.2,0.9-1.5,0.9-1.6,0c-1.9-13-14.2-41.6-85.6-36.7
	C1045.4,674.9,1045.1,673.6,1046.1,673.3z"/>
</svg>
